<svg width="34" height="25" viewBox="0 0 34 25" fill="none" xmlns="http://www.w3.org/2000/svg">
<path d="M20 5.61336e-10C20.4314 -1.11891e-05 20.846 0.167271 21.1567 0.466667L21.3017 0.625L27.4667 8.33333H28.3333C29.6087 8.33326 30.8359 8.82054 31.7638 9.69547C32.6917 10.5704 33.2502 11.7668 33.325 13.04L33.3333 13.3333V20C33.3333 20.442 33.1577 20.866 32.8452 21.1785C32.5326 21.4911 32.1087 21.6667 31.6667 21.6667H29.715C29.37 22.6414 28.7313 23.4853 27.887 24.0821C27.0426 24.6789 26.034 24.9994 25 24.9994C23.966 24.9994 22.9574 24.6789 22.113 24.0821C21.2687 23.4853 20.63 22.6414 20.285 21.6667H13.0483C12.7033 22.6414 12.0647 23.4853 11.2203 24.0821C10.3759 24.6789 9.36733 24.9994 8.33333 24.9994C7.29933 24.9994 6.29074 24.6789 5.44637 24.0821C4.60201 23.4853 3.96336 22.6414 3.61833 21.6667H1.66667C1.22464 21.6667 0.800716 21.4911 0.488155 21.1785C0.175595 20.866 0 20.442 0 20V10L0.0116666 9.805L0.0250002 9.71167L0.0533334 9.58167L0.0733332 9.52167L0.0966668 9.43833L3.45333 1.04833C3.57689 0.739064 3.79027 0.473903 4.06595 0.287047C4.34163 0.100192 4.66696 0.000210795 5 5.61336e-10H20ZM8.33333 18.3333C7.89131 18.3333 7.46738 18.5089 7.15482 18.8215C6.84226 19.134 6.66667 19.558 6.66667 20C6.66667 20.442 6.84226 20.866 7.15482 21.1785C7.46738 21.4911 7.89131 21.6667 8.33333 21.6667C8.77536 21.6667 9.19928 21.4911 9.51184 21.1785C9.8244 20.866 10 20.442 10 20C10 19.558 9.8244 19.134 9.51184 18.8215C9.19928 18.5089 8.77536 18.3333 8.33333 18.3333ZM25 18.3333C24.558 18.3333 24.134 18.5089 23.8215 18.8215C23.5089 19.134 23.3333 19.558 23.3333 20C23.3333 20.442 23.5089 20.866 23.8215 21.1785C24.134 21.4911 24.558 21.6667 25 21.6667C25.442 21.6667 25.866 21.4911 26.1785 21.1785C26.4911 20.866 26.6667 20.442 26.6667 20C26.6667 19.558 26.4911 19.134 26.1785 18.8215C25.866 18.5089 25.442 18.3333 25 18.3333ZM15 3.33333H6.12667L4.12667 8.33333H15V3.33333ZM19.2 3.33333H18.3333V8.33333H23.2L19.2 3.33333Z" fill="#0057FF"/>
</svg>
