<svg width="36" height="36" viewBox="0 0 36 36" fill="none" xmlns="http://www.w3.org/2000/svg">
<path d="M10.5 31.5V28.5H16.5V23.85C15.275 23.575 14.1815 23.0565 13.2195 22.2945C12.2575 21.5325 11.551 20.576 11.1 19.425C9.225 19.2 7.6565 18.3815 6.3945 16.9695C5.1325 15.5575 4.501 13.901 4.5 12V10.5C4.5 9.675 4.794 8.969 5.382 8.382C5.97 7.795 6.676 7.501 7.5 7.5H10.5V4.5H25.5V7.5H28.5C29.325 7.5 30.0315 7.794 30.6195 8.382C31.2075 8.97 31.501 9.676 31.5 10.5V12C31.5 13.9 30.8685 15.5565 29.6055 16.9695C28.3425 18.3825 26.774 19.201 24.9 19.425C24.45 20.575 23.744 21.5315 22.782 22.2945C21.82 23.0575 20.726 23.576 19.5 23.85V28.5H25.5V31.5H10.5ZM10.5 16.2V10.5H7.5V12C7.5 12.95 7.775 13.8065 8.325 14.5695C8.875 15.3325 9.6 15.876 10.5 16.2ZM25.5 16.2C26.4 15.875 27.125 15.331 27.675 14.568C28.225 13.805 28.5 12.949 28.5 12V10.5H25.5V16.2Z" fill="#F6D049"/>
</svg>
