<svg width="17" height="22" viewBox="0 0 17 22" fill="none" xmlns="http://www.w3.org/2000/svg">
<path d="M7.88529 0C8.97814 0 9.59614 0.158571 10.3221 0.87L10.4061 0.954428L15.951 6.58929C16.6161 7.27071 16.827 7.77386 16.8797 8.66143L16.89 8.89157L16.8943 9.13971L16.8951 18.3917C16.8951 20.4394 15.9013 21.4933 13.9046 21.5344L13.7811 21.5357H3.114C1.086 21.5357 0.0424287 20.5324 0.00128583 18.5164L0 18.3917V3.15386C0 1.10657 1.00329 0.0428571 2.991 0.00128562L3.114 0H7.88529ZM7.66414 1.617H3.20443C2.193 1.617 1.653 2.15357 1.61871 3.08914L1.617 3.18429V18.3617C1.617 19.3337 2.12529 19.8823 3.09557 19.9166L3.19414 19.9187H13.701C14.712 19.9187 15.243 19.401 15.2764 18.4573L15.2781 18.3617V9.34157H9.55243C8.34257 9.34157 7.701 8.754 7.66543 7.56L7.66414 7.45286V1.617ZM4.21586 12.8807C4.58571 12.8807 4.88529 13.1807 4.88529 13.5506V18.2391C4.88529 18.6086 4.58529 18.9086 4.21586 18.9086H3.546C3.17614 18.9086 2.87614 18.6086 2.87614 18.2387V13.5501C2.87614 13.1807 3.17614 12.8807 3.546 12.8807H4.21586ZM10.2437 14.8899C10.6136 14.8899 10.9131 15.1899 10.9131 15.5597V18.2387C10.9131 18.6086 10.6131 18.9086 10.2437 18.9086H9.57386C9.204 18.9086 8.904 18.6086 8.904 18.2387V15.5601C8.904 15.1899 9.204 14.8899 9.57386 14.8899H10.2437ZM7.22957 10.8716C7.59943 10.8716 7.89943 11.1716 7.89943 11.541V18.2387C7.89943 18.6086 7.59943 18.9086 7.22957 18.9086H6.55971C6.18986 18.9086 5.89029 18.6086 5.89029 18.2387V11.5414C5.89029 11.1716 6.19029 10.872 6.55971 10.872L7.22957 10.8716ZM9.18086 1.92857V7.26214C9.18086 7.64057 9.32314 7.80514 9.66643 7.82314L9.73329 7.82486H14.9661L9.18086 1.92857Z" fill="white"/>
</svg>
