<svg width="22" height="20" viewBox="0 0 22 20" fill="none" xmlns="http://www.w3.org/2000/svg">
<path d="M16.4582 3.75C15.2431 2.39142 13.644 1.43382 11.8727 1.00392C10.1014 0.57401 8.24134 0.692062 6.5386 1.34245C4.83586 1.99284 3.37073 3.14491 2.33709 4.64621C1.30344 6.14751 0.75 7.92728 0.75 9.75C0.75 11.5727 1.30344 13.3525 2.33709 14.8538C3.37073 16.3551 4.83586 17.5072 6.5386 18.1576C8.24134 18.8079 10.1014 18.926 11.8727 18.4961C13.644 18.0662 15.2431 17.1086 16.4582 15.75M20.7502 9.75H6.7502M20.7502 9.75L16.7502 5.75M20.7502 9.75L16.7502 13.75" stroke="white" stroke-width="1.5"/>
</svg>
