<svg width="18" height="22" viewBox="0 0 18 22" fill="none" xmlns="http://www.w3.org/2000/svg">
<path d="M12.633 13.6549C12.6322 13.8167 12.5677 13.9717 12.4534 14.0862C12.3391 14.2008 12.1843 14.2657 12.0225 14.2669H5.502C5.33969 14.2669 5.18402 14.2024 5.06925 14.0876C4.95448 13.9728 4.89 13.8172 4.89 13.6549C4.89 13.4926 4.95448 13.3369 5.06925 13.2221C5.18402 13.1073 5.33969 13.0429 5.502 13.0429H12.0225C12.1846 13.0437 12.3398 13.1084 12.4544 13.223C12.569 13.3376 12.6337 13.4928 12.6345 13.6549M12.024 9.78337H5.502C5.34513 9.79114 5.19724 9.85893 5.08896 9.97271C4.98068 10.0865 4.92029 10.2375 4.92029 10.3946C4.92029 10.5517 4.98068 10.7027 5.08896 10.8165C5.19724 10.9303 5.34513 10.9981 5.502 11.0059H12.0225C12.1794 10.9981 12.3273 10.9303 12.4355 10.8165C12.5438 10.7027 12.6042 10.5517 12.6042 10.3946C12.6042 10.2375 12.5438 10.0865 12.4355 9.97271C12.3273 9.85893 12.1809 9.79114 12.024 9.78337ZM17.5245 3.05887V20.1754C17.5247 20.3626 17.488 20.5481 17.4165 20.7211C17.3449 20.8942 17.24 21.0515 17.1077 21.184C16.9753 21.3164 16.8182 21.4215 16.6452 21.4933C16.4722 21.565 16.2868 21.6019 16.0995 21.6019H1.425C1.04707 21.6019 0.684613 21.4517 0.417374 21.1845C0.150134 20.9173 7.89547e-07 20.5548 7.89547e-07 20.1769V3.05737C-0.000196326 2.87011 0.0365169 2.68464 0.108042 2.51158C0.179566 2.33852 0.2845 2.18125 0.416843 2.04877C0.549186 1.91629 0.706343 1.81119 0.87933 1.73948C1.05232 1.66778 1.23774 1.63087 1.425 1.63087H5.2125C5.65157 1.11931 6.19605 0.708721 6.80861 0.42723C7.42118 0.145739 8.08735 0 8.7615 0C9.43565 0 10.1018 0.145739 10.7144 0.42723C11.327 0.708721 11.8714 1.11931 12.3105 1.63087H16.0965C16.2838 1.63067 16.4692 1.66738 16.6423 1.73891C16.8153 1.81043 16.9726 1.91537 17.1051 2.04771C17.2376 2.18005 17.3427 2.33721 17.4144 2.5102C17.4861 2.68318 17.523 2.86861 17.523 3.05587M5.298 4.68637V4.88887H12.225V4.68637C12.2346 4.22537 12.1521 3.76709 11.9823 3.33839C11.8125 2.90969 11.5589 2.51919 11.2362 2.18977C10.9136 1.86035 10.5285 1.59864 10.1034 1.41998C9.67831 1.24131 9.22185 1.14928 8.76075 1.14928C8.29965 1.14928 7.84319 1.24131 7.41812 1.41998C6.99304 1.59864 6.6079 1.86035 6.28527 2.18977C5.96263 2.51919 5.70899 2.90969 5.53921 3.33839C5.36942 3.76709 5.28841 4.22537 5.298 4.68637ZM16.299 3.05587C16.299 3.02908 16.2937 3.00255 16.2835 2.9778C16.2732 2.95305 16.2582 2.93056 16.2393 2.91162C16.2203 2.89267 16.1978 2.87765 16.1731 2.8674C16.1483 2.85714 16.1218 2.85187 16.095 2.85187H13.0725C13.32 3.43087 13.4475 4.05487 13.4475 4.68637V5.50087C13.4467 5.66294 13.382 5.81814 13.2674 5.93274C13.1528 6.04735 12.9976 6.11208 12.8355 6.11287H4.6875C4.52543 6.11208 4.37022 6.04735 4.25562 5.93274C4.14102 5.81814 4.07629 5.66294 4.0755 5.50087V4.68637C4.0755 4.05637 4.203 3.43087 4.4505 2.85187H1.425C1.39821 2.85187 1.37168 2.85714 1.34693 2.8674C1.32218 2.87765 1.29969 2.89267 1.28075 2.91162C1.26181 2.93056 1.24678 2.95305 1.23653 2.9778C1.22628 3.00255 1.221 3.02908 1.221 3.05587V20.1724C1.221 20.2265 1.24249 20.2784 1.28075 20.3166C1.31901 20.3549 1.3709 20.3764 1.425 20.3764H16.0965C16.1506 20.3764 16.2025 20.3549 16.2408 20.3166C16.279 20.2784 16.3005 20.2265 16.3005 20.1724L16.299 3.05587Z" fill="white"/>
</svg>
