<svg width="20" height="20" viewBox="0 0 20 20" fill="none" xmlns="http://www.w3.org/2000/svg">
<path d="M19 9.99791C19.0028 11.7847 18.4714 13.5315 17.474 15.0139C16.6514 16.2409 15.5391 17.2463 14.2356 17.9412C12.932 18.6361 11.4772 18.999 10 18.9979C8.52277 18.999 7.06804 18.6361 5.76444 17.9412C4.46085 17.2463 3.34858 16.2409 2.526 15.0139C1.74273 13.8463 1.2439 12.5115 1.06951 11.1164C0.895109 9.72124 1.05 8.30467 1.52175 6.9802C1.9935 5.65573 2.769 4.46021 3.78607 3.48947C4.80314 2.51873 6.0335 1.79978 7.37851 1.39025C8.72352 0.980724 10.1458 0.892009 11.5312 1.13122C12.9167 1.37043 14.2269 1.93091 15.3567 2.76773C16.4865 3.60455 17.4046 4.69444 18.0373 5.95002C18.67 7.20559 18.9997 8.59194 19 9.99791Z" stroke="white" stroke-width="2"/>
<path d="M10.9998 6.9978C10.9998 7.26302 10.8944 7.51737 10.7069 7.70491C10.5193 7.89245 10.265 7.9978 9.99976 7.9978V9.9978C10.7954 9.9978 11.5585 9.68173 12.1211 9.11912C12.6837 8.55651 12.9998 7.79345 12.9998 6.9978H10.9998ZM9.99976 7.9978C9.73454 7.9978 9.48019 7.89245 9.29265 7.70491C9.10511 7.51737 8.99976 7.26302 8.99976 6.9978H6.99976C6.99976 7.79345 7.31583 8.55651 7.87844 9.11912C8.44105 9.68173 9.20411 9.9978 9.99976 9.9978V7.9978ZM8.99976 6.9978C8.99976 6.73259 9.10511 6.47823 9.29265 6.2907C9.48019 6.10316 9.73454 5.9978 9.99976 5.9978V3.9978C9.20411 3.9978 8.44105 4.31387 7.87844 4.87648C7.31583 5.43909 6.99976 6.20215 6.99976 6.9978H8.99976ZM9.99976 5.9978C10.265 5.9978 10.5193 6.10316 10.7069 6.2907C10.8944 6.47823 10.9998 6.73259 10.9998 6.9978H12.9998C12.9998 6.20215 12.6837 5.43909 12.1211 4.87648C11.5585 4.31387 10.7954 3.9978 9.99976 3.9978V5.9978ZM3.16576 15.8538L2.20676 15.5688L2.05176 16.0918L2.40676 16.5048L3.16576 15.8538ZM16.8338 15.8538L17.5938 16.5048L17.9478 16.0918L17.7928 15.5688L16.8338 15.8538ZM6.99976 13.9978H12.9998V11.9978H6.99976V13.9978ZM6.99976 11.9978C5.92281 11.9975 4.87454 12.3449 4.01093 12.9883C3.14733 13.6317 2.51455 14.5368 2.20676 15.5688L4.12376 16.1388C4.30873 15.5199 4.68855 14.9771 5.20673 14.5914C5.72491 14.2056 6.35376 13.9975 6.99976 13.9978V11.9978ZM9.99976 17.9978C8.84525 17.9991 7.7042 17.7499 6.65537 17.2673C5.60654 16.7848 4.6749 16.0804 3.92476 15.2028L2.40676 16.5048C3.34464 17.6013 4.50914 18.4814 5.81999 19.0844C7.13084 19.6875 8.55686 19.9991 9.99976 19.9978V17.9978ZM12.9998 13.9978C14.3568 13.9978 15.5058 14.8998 15.8758 16.1398L17.7928 15.5688C17.485 14.5369 16.8514 13.632 15.988 12.9886C15.1246 12.3452 14.0765 11.9977 12.9998 11.9978V13.9978ZM16.0748 15.2028C15.3246 16.0804 14.393 16.7848 13.3441 17.2673C12.2953 17.7499 11.1543 17.9991 9.99976 17.9978V19.9978C11.4427 19.9991 12.8687 19.6875 14.1795 19.0844C15.4904 18.4814 16.6559 17.6013 17.5938 16.5048L16.0748 15.2028Z" fill="white"/>
</svg>
