<svg width="102" height="102" viewBox="0 0 102 102" fill="none" xmlns="http://www.w3.org/2000/svg">
<path d="M18 24C18 17.6348 20.5286 11.5303 25.0294 7.02944C29.5303 2.52856 35.6348 0 42 0C48.3652 0 54.4697 2.52856 58.9706 7.02944C63.4714 11.5303 66 17.6348 66 24C66 30.3652 63.4714 36.4697 58.9706 40.9706C54.4697 45.4714 48.3652 48 42 48C35.6348 48 29.5303 45.4714 25.0294 40.9706C20.5286 36.4697 18 30.3652 18 24ZM0 66C0 59.322 5.418 54 12.054 54H49.542C44.657 59.9069 41.9893 67.3349 42 75C42 82.818 44.718 90 49.26 95.658C46.888 95.886 44.468 96 42 96C30.87 96 20.502 93.684 12.81 88.782C4.998 83.802 0 76.14 0 66ZM102 75C102 82.1608 99.1554 89.0284 94.0919 94.0919C89.0284 99.1554 82.1608 102 75 102C67.8392 102 60.9716 99.1554 55.9081 94.0919C50.8446 89.0284 48 82.1608 48 75C48 67.8392 50.8446 60.9716 55.9081 55.9081C60.9716 50.8446 67.8392 48 75 48C82.1608 48 89.0284 50.8446 94.0919 55.9081C99.1554 60.9716 102 67.8392 102 75ZM86.124 68.124C86.6873 67.5607 87.0038 66.7967 87.0038 66C87.0038 65.2033 86.6873 64.4393 86.124 63.876C85.5607 63.3127 84.7967 62.9962 84 62.9962C83.2033 62.9962 82.4393 63.3127 81.876 63.876L75 70.758L68.124 63.876C67.5607 63.3127 66.7967 62.9962 66 62.9962C65.2033 62.9962 64.4393 63.3127 63.876 63.876C63.3127 64.4393 62.9962 65.2033 62.9962 66C62.9962 66.7967 63.3127 67.5607 63.876 68.124L70.758 75L63.876 81.876C63.5971 82.1549 63.3758 82.4861 63.2249 82.8505C63.0739 83.2149 62.9962 83.6055 62.9962 84C62.9962 84.3945 63.0739 84.7851 63.2249 85.1495C63.3758 85.5139 63.5971 85.8451 63.876 86.124C64.1549 86.4029 64.4861 86.6242 64.8505 86.7751C65.2149 86.9261 65.6055 87.0038 66 87.0038C66.3945 87.0038 66.7851 86.9261 67.1495 86.7751C67.5139 86.6242 67.8451 86.4029 68.124 86.124L75 79.242L81.876 86.124C82.1549 86.4029 82.4861 86.6242 82.8505 86.7751C83.2149 86.9261 83.6055 87.0038 84 87.0038C84.3945 87.0038 84.7851 86.9261 85.1495 86.7751C85.5139 86.6242 85.8451 86.4029 86.124 86.124C86.4029 85.8451 86.6242 85.5139 86.7751 85.1495C86.9261 84.7851 87.0038 84.3945 87.0038 84C87.0038 83.6055 86.9261 83.2149 86.7751 82.8505C86.6242 82.4861 86.4029 82.1549 86.124 81.876L79.242 75L86.124 68.124Z" fill="black"/>
</svg>
