<svg width="21" height="21" viewBox="0 0 21 21" fill="none" xmlns="http://www.w3.org/2000/svg">
<path d="M10 1.99634H3C2.46957 1.99634 1.96086 2.20705 1.58579 2.58212C1.21071 2.9572 1 3.4659 1 3.99634V17.9963C1 18.5268 1.21071 19.0355 1.58579 19.4106C1.96086 19.7856 2.46957 19.9963 3 19.9963H17C17.5304 19.9963 18.0391 19.7856 18.4142 19.4106C18.7893 19.0355 19 18.5268 19 17.9963V10.9963" stroke="white" stroke-width="2" stroke-linecap="round" stroke-linejoin="round"/>
<path d="M16.3741 1.62132C16.7719 1.2235 17.3115 1 17.8741 1C18.4367 1 18.9763 1.2235 19.3741 1.62132C19.7719 2.01914 19.9954 2.55871 19.9954 3.12132C19.9954 3.68393 19.7719 4.2235 19.3741 4.62132L10.3611 13.6353C10.1237 13.8726 9.83032 14.0462 9.50812 14.1403L6.63512 14.9803C6.54907 15.0054 6.45786 15.0069 6.37103 14.9847C6.2842 14.9624 6.20494 14.9173 6.14156 14.8539C6.07818 14.7905 6.03301 14.7112 6.01076 14.6244C5.98852 14.5376 5.99002 14.4464 6.01512 14.3603L6.85512 11.4873C6.94964 11.1654 7.12365 10.8724 7.36112 10.6353L16.3741 1.62132Z" stroke="white" stroke-width="2" stroke-linecap="round" stroke-linejoin="round"/>
</svg>
