<svg width="24" height="16" viewBox="0 0 24 16" fill="none" xmlns="http://www.w3.org/2000/svg">
<path d="M1.93166 0H22.0683C22.5968 0 23.0797 0.215126 23.4351 0.555742L23.4533 0.582633C23.7904 0.923249 24 1.38936 24 1.90028V14.0908C24 14.6106 23.7813 15.0857 23.4351 15.4353C23.0797 15.7849 22.5968 16 22.0683 16H1.93166C1.40319 16 0.920273 15.7849 0.56492 15.4353C0.218679 15.0947 0 14.6196 0 14.0908V1.90028C0 1.38039 0.218679 0.905322 0.56492 0.555742C0.920273 0.215126 1.40319 0 1.93166 0ZM13.9408 13.1406C13.7221 13.1406 13.549 12.9703 13.549 12.7552C13.549 12.549 13.7221 12.3787 13.9408 12.3787H16.8383C17.0569 12.3787 17.2301 12.549 17.2301 12.7552C17.2301 12.9703 17.0569 13.1406 16.8383 13.1406H13.9408ZM13.9408 9.96751C13.7221 9.96751 13.549 9.7972 13.549 9.58207C13.549 9.37591 13.7221 9.2056 13.9408 9.2056H19.7449C19.9544 9.2056 20.1276 9.37591 20.1276 9.58207C20.1276 9.7972 19.9544 9.96751 19.7449 9.96751H13.9408ZM13.9408 6.7944C13.7221 6.7944 13.549 6.62409 13.549 6.40896C13.549 6.2028 13.7221 6.03249 13.9408 6.03249H19.7449C19.9544 6.03249 20.1276 6.2028 20.1276 6.40896C20.1276 6.62409 19.9544 6.7944 19.7449 6.7944H13.9408ZM13.9408 3.62129C13.7221 3.62129 13.549 3.45098 13.549 3.23585C13.549 3.02969 13.7221 2.85938 13.9408 2.85938H19.7449C19.9544 2.85938 20.1276 3.02969 20.1276 3.23585C20.1276 3.45098 19.9544 3.62129 19.7449 3.62129H13.9408ZM10.6241 12.3787C10.533 11.5899 10.1686 10.8728 9.62187 10.335C8.99317 9.71653 8.11845 9.33109 7.16173 9.33109C6.20501 9.33109 5.3303 9.71653 4.70159 10.335C4.1549 10.8728 3.79043 11.5899 3.69932 12.3787H10.6241ZM3.68109 10.3529C3.81777 10.1557 3.98178 9.96751 4.1549 9.7972C4.59226 9.37591 5.11162 9.03529 5.70387 8.82017C5.64009 8.77535 5.57631 8.72157 5.52164 8.65882L5.49431 8.6409C5.09339 8.22857 4.83827 7.66387 4.83827 7.04538C4.83827 6.41793 5.10251 5.84426 5.52164 5.43193C5.94077 5.01961 6.52392 4.75966 7.16173 4.75966C7.79954 4.75966 8.38269 5.01961 8.80182 5.43193C9.22096 5.84426 9.48519 6.41793 9.48519 7.04538C9.48519 7.67283 9.22096 8.2465 8.80182 8.65882C8.74715 8.72157 8.68337 8.77535 8.61959 8.82017C9.21184 9.03529 9.74032 9.37591 10.1686 9.7972C10.3417 9.96751 10.5057 10.1557 10.6424 10.3529V3.62129H3.68109V10.3529ZM8.25513 5.96975C7.98178 5.69188 7.58998 5.52157 7.16173 5.52157C6.73349 5.52157 6.3508 5.69188 6.06834 5.96975C5.78588 6.24762 5.61276 6.62409 5.61276 7.04538C5.61276 7.4577 5.77676 7.83417 6.05011 8.10308L6.06834 8.12101C6.3508 8.39888 6.73349 8.56919 7.16173 8.56919C7.58998 8.56919 7.98178 8.39888 8.25513 8.12101C8.53759 7.8521 8.71071 7.46667 8.71071 7.04538C8.71071 6.62409 8.53759 6.24762 8.25513 5.96975ZM3.28929 2.85938H11.0342C11.2437 2.85938 11.4169 3.02969 11.4169 3.23585V12.7552C11.4169 12.9703 11.2437 13.1406 11.0342 13.1406H3.28929C3.07973 13.1406 2.90661 12.9703 2.90661 12.7552V3.23585C2.90661 3.02969 3.07973 2.85938 3.28929 2.85938ZM22.0683 0.761905H1.93166C1.61276 0.761905 1.3303 0.887395 1.11162 1.09356C0.90205 1.30868 0.774487 1.58655 0.774487 1.90028V14.0908C0.774487 14.4045 0.90205 14.6913 1.11162 14.8975C1.32118 15.1036 1.61276 15.2381 1.93166 15.2381H22.0683C22.3872 15.2381 22.6788 15.1036 22.8884 14.8975C23.0979 14.6913 23.2255 14.4045 23.2255 14.0908V1.90028C23.2255 1.59552 23.1071 1.31765 22.9066 1.11148L22.8884 1.09356C22.6788 0.887395 22.3872 0.761905 22.0683 0.761905Z" fill="#0057FF"/>
</svg>
