<svg width="36" height="36" viewBox="0 0 36 36" fill="none" xmlns="http://www.w3.org/2000/svg">
<path d="M32.157 17.4933L18.372 31.2783C16.6833 32.9671 14.3928 33.9158 12.0045 33.9158C9.61624 33.9158 7.32578 32.9671 5.63702 31.2783C3.94825 29.5896 2.99951 27.2991 2.99951 24.9108C2.99951 22.5226 3.94825 20.2321 5.63702 18.5433L19.422 4.75834C20.5479 3.63249 22.0748 3 23.667 3C25.2592 3 26.7862 3.63249 27.912 4.75834C29.0379 5.88418 29.6704 7.41115 29.6704 9.00334C29.6704 10.5955 29.0379 12.1225 27.912 13.2483L14.112 27.0333C13.8333 27.3121 13.5024 27.5332 13.1382 27.684C12.774 27.8349 12.3837 27.9125 11.9895 27.9125C11.5953 27.9125 11.205 27.8349 10.8408 27.684C10.4766 27.5332 10.1457 27.3121 9.86702 27.0333C9.58829 26.7546 9.36718 26.4237 9.21634 26.0595C9.06549 25.6953 8.98785 25.305 8.98785 24.9108C8.98785 24.5167 9.06549 24.1263 9.21634 23.7621C9.36718 23.398 9.58829 23.0671 9.86702 22.7883L22.602 10.0683" stroke="#7B7B7B" stroke-width="1.5" stroke-linecap="round" stroke-linejoin="round"/>
</svg>
