<svg width="15" height="18" viewBox="0 0 15 18" fill="none" xmlns="http://www.w3.org/2000/svg">
<path d="M0.625 17.5C0.45924 17.5 0.300269 17.4342 0.183058 17.3169C0.0658481 17.1997 0 17.0408 0 16.875C0 16.7092 0.0658481 16.5503 0.183058 16.4331C0.300269 16.3158 0.45924 16.25 0.625 16.25H1.875V15C1.87474 13.9387 2.17473 12.899 2.74031 12.001C3.30589 11.1029 4.11399 10.3832 5.07125 9.925C5.43375 9.75125 5.625 9.45375 5.625 9.1875V8.3125C5.625 8.04625 5.4325 7.74875 5.07125 7.575C4.11399 7.11676 3.30589 6.39706 2.74031 5.49903C2.17473 4.601 1.87474 3.56129 1.875 2.5V1.25H0.625C0.45924 1.25 0.300269 1.18415 0.183058 1.06694C0.0658481 0.949732 0 0.79076 0 0.625C0 0.45924 0.0658481 0.300268 0.183058 0.183058C0.300269 0.065848 0.45924 0 0.625 0H14.375C14.5408 0 14.6997 0.065848 14.8169 0.183058C14.9342 0.300268 15 0.45924 15 0.625C15 0.79076 14.9342 0.949732 14.8169 1.06694C14.6997 1.18415 14.5408 1.25 14.375 1.25H13.125V2.5C13.1253 3.56129 12.8253 4.601 12.2597 5.49903C11.6941 6.39706 10.886 7.11676 9.92875 7.575C9.56625 7.74875 9.375 8.04625 9.375 8.3125V9.1875C9.375 9.45375 9.5675 9.75125 9.92875 9.925C10.886 10.3832 11.6941 11.1029 12.2597 12.001C12.8253 12.899 13.1253 13.9387 13.125 15V16.25H14.375C14.5408 16.25 14.6997 16.3158 14.8169 16.4331C14.9342 16.5503 15 16.7092 15 16.875C15 17.0408 14.9342 17.1997 14.8169 17.3169C14.6997 17.4342 14.5408 17.5 14.375 17.5H0.625ZM3.125 1.25V2.5C3.125 3.17125 3.275 3.80625 3.54625 4.375H11.4538C11.7238 3.80625 11.875 3.17125 11.875 2.5V1.25H3.125ZM6.875 9.1875C6.875 10.0638 6.2775 10.7325 5.61125 11.0525C4.86662 11.4089 4.23801 11.9687 3.79806 12.6672C3.35811 13.3657 3.12477 14.1745 3.125 15C3.125 15 4.2075 13.3763 6.875 13.15V9.1875ZM8.125 9.1875V13.15C10.7925 13.3763 11.875 15 11.875 15C11.8752 14.1745 11.6419 13.3657 11.2019 12.6672C10.762 11.9687 10.1334 11.4089 9.38875 11.0525C8.7225 10.7325 8.125 10.0638 8.125 9.1875Z" fill="white"/>
</svg>
