<svg width="333" height="88" viewBox="0 0 333 88" fill="none" xmlns="http://www.w3.org/2000/svg">
<path d="M0 44.4423C0 38.4323 1.3544 33.0409 4.06321 28.2683C6.77201 23.4367 10.4525 19.6658 15.1045 16.9554C19.8155 14.245 25.027 12.8898 30.739 12.8898C37.4522 12.8898 43.3114 14.5101 48.3168 17.7508C53.3222 20.9915 56.9732 25.5874 59.2698 31.5385H49.6418C47.9341 27.8264 45.4608 24.9687 42.222 22.9654C39.0421 20.962 35.2145 19.9604 30.739 19.9604C26.4403 19.9604 22.5832 20.962 19.1677 22.9654C15.7523 24.9687 13.0729 27.8264 11.1297 31.5385C9.18638 35.1916 8.21474 39.4929 8.21474 44.4423C8.21474 49.3327 9.18638 53.634 11.1297 57.3461C13.0729 60.9992 15.7523 63.8274 19.1677 65.8308C22.5832 67.8341 26.4403 68.8358 30.739 68.8358C35.2145 68.8358 39.0421 67.8636 42.222 65.9191C45.4608 63.9158 47.9341 61.0581 49.6418 57.3461H59.2698C56.9732 63.2382 53.3222 67.8046 48.3168 71.0453C43.3114 74.2271 37.4522 75.8179 30.739 75.8179C25.027 75.8179 19.8155 74.4922 15.1045 71.8408C10.4525 69.1304 6.77201 65.3888 4.06321 60.6162C1.3544 55.8436 0 50.4522 0 44.4423Z" fill="#0057FF"/>
<path d="M105.596 13.6852V20.2255H88.8129V75.2877H80.7748V20.2255H63.9037V13.6852H105.596Z" fill="#0057FF"/>
<path d="M158.595 31.5385C156.888 27.9442 154.414 25.1749 151.176 23.2305C147.937 21.2272 144.168 20.2255 139.869 20.2255C135.571 20.2255 131.684 21.2272 128.21 23.2305C124.794 25.1749 122.085 28.0032 120.083 31.7152C118.14 35.3683 117.168 39.6107 117.168 44.4423C117.168 49.2738 118.14 53.5162 120.083 57.1693C122.085 60.8224 124.794 63.6507 128.21 65.654C131.684 67.5984 135.571 68.5706 139.869 68.5706C145.876 68.5706 150.822 66.7735 154.709 63.1793C158.595 59.5851 160.863 54.7241 161.51 48.5962H136.954V42.0559H170.078V48.2427C169.607 53.3099 168.017 57.9647 165.309 62.2071C162.6 66.3905 159.037 69.7196 154.621 72.1943C150.204 74.6101 145.287 75.8179 139.869 75.8179C134.157 75.8179 128.946 74.4922 124.235 71.8408C119.524 69.1304 115.785 65.3888 113.017 60.6162C110.308 55.8436 108.954 50.4522 108.954 44.4423C108.954 38.4323 110.308 33.0409 113.017 28.2683C115.785 23.4367 119.524 19.6952 124.235 17.0438C128.946 14.3334 134.157 12.9782 139.869 12.9782C146.406 12.9782 152.177 14.5985 157.182 17.8392C162.246 21.0799 165.927 25.6463 168.223 31.5385H158.595Z" fill="#0057FF"/>
<path d="M191.47 87.1122C186.886 84.8188 184.225 80.454 183.485 74.0177C183.337 72.686 183.263 71.2804 183.263 69.8008C183.263 63.9563 184.446 56.6322 186.812 47.8285C188.291 42.5019 190.103 36.9903 192.247 31.2938C194.391 25.5973 197.312 18.4212 201.008 9.76545C203.005 5.25263 204.446 2.40437 205.334 1.22068C205.999 0.406894 206.702 0 207.441 0C207.737 0 208.032 0.0739807 208.328 0.221942C209.511 0.739807 209.955 1.73855 209.659 3.21816C209.363 4.62379 207.995 8.21185 205.556 13.9823C201.711 23.008 198.753 30.3321 196.683 35.9546C194.613 41.6511 192.949 46.9777 191.692 51.9344C190.435 57.1131 189.622 61.9958 189.252 66.5826C188.957 71.0954 189.178 74.4985 189.918 76.7919C190.805 79.4552 192.321 81.1198 194.465 81.7856C196.609 82.5254 199.419 82.3035 202.894 81.1198C204.964 80.38 207.034 79.2703 209.105 77.7907C211.175 76.2371 213.171 74.4985 215.093 72.575C218.642 69.0979 221.822 65.5469 224.631 61.9218C227.441 58.3707 229.4 56.1883 230.509 55.3745C231.692 54.7087 232.949 54.8567 234.28 55.8184C234.798 56.2623 235.057 56.8541 235.057 57.5939C235.057 58.5557 234.539 59.8873 233.504 61.5889C232.838 62.4767 231.914 63.6974 230.731 65.2509C229.548 66.8045 228.143 68.5061 226.517 70.3556C223.559 73.7587 219.973 77.1988 215.759 80.6759C211.544 84.079 207.034 86.3724 202.228 87.5561C200.75 87.852 199.16 88 197.459 88C197.09 88 196.72 88 196.35 88C194.206 87.926 192.58 87.6301 191.47 87.1122Z" fill="#1C1C1C"/>
<path d="M241.272 41.8361C242.455 42.28 243.342 42.9458 243.934 43.8335C244.525 44.7213 244.821 45.905 244.821 47.3846C244.821 50.1219 243.786 52.7112 241.715 55.1526C239.719 57.6679 236.836 59.8504 233.065 61.6999C232.104 62.2177 230.625 62.9575 228.628 63.9193C228.333 64.881 228.296 65.7318 228.518 66.4716C228.739 67.2854 229.072 67.9512 229.516 68.4691C229.811 68.913 230.292 69.1719 230.958 69.2459C231.549 69.3939 232.399 69.4309 233.508 69.3569C236.17 69.1349 239.386 67.8403 243.157 65.4729C246.928 63.1055 251.142 59.7024 255.8 55.2636C257.131 53.9319 258.351 52.7852 259.46 51.8235C260.569 50.8617 261.235 50.3438 261.457 50.2699C262.196 50.0479 262.935 50.2329 263.675 50.8247C264.34 51.4905 264.673 52.2673 264.673 53.1551C264.673 53.8209 264.377 54.5238 263.786 55.2636C263.194 56.0034 261.826 57.409 259.682 59.4805C253.915 65.2509 248.37 69.5418 243.046 72.3531C238.906 74.5725 235.357 75.6822 232.399 75.6822C231.586 75.6822 230.773 75.5713 229.959 75.3493C227.15 74.6095 225.116 72.9819 223.86 70.4666C223.046 68.839 222.64 66.9895 222.64 64.918C222.64 63.7343 222.75 62.4767 222.972 61.145C224.007 56.1143 226.226 51.6385 229.627 47.7175C233.028 43.7226 236.281 41.6881 239.386 41.6141C239.46 41.6141 239.497 41.6141 239.497 41.6141C239.793 41.6141 240.089 41.6141 240.385 41.6141C240.68 41.6881 240.976 41.7621 241.272 41.8361ZM232.399 53.599C231.66 54.8567 231.29 55.5965 231.29 55.8184C231.364 56.0404 231.882 55.8924 232.843 55.3745C234.47 54.5607 236.059 53.0811 237.612 50.9357C239.238 48.7902 239.534 47.7175 238.499 47.7175C238.129 47.7175 237.168 48.4573 235.616 49.937C234.137 51.4166 233.065 52.6372 232.399 53.599Z" fill="#1C1C1C"/>
<path d="M280.981 41.2812C282.09 41.8731 282.57 42.7238 282.422 43.8335C282.348 44.8693 281.646 47.4586 280.315 51.6015C279.058 55.3005 278.023 58.6297 277.21 61.5889C276.47 64.6221 276.101 66.7306 276.101 67.9143C276.101 69.5418 277.284 69.0979 279.65 66.5826C282.016 64.0673 285.417 59.6284 289.853 53.2661C290.962 51.7125 291.702 50.7877 292.071 50.4918C292.441 50.1959 293.069 50.0849 293.957 50.1589C294.844 50.2329 295.583 50.6028 296.175 51.2686C296.544 51.7125 296.729 52.1934 296.729 52.7112C296.729 52.9332 296.692 53.1551 296.618 53.3771C296.544 53.747 295.879 54.8567 294.622 56.7062C293.365 58.5557 291.96 60.4792 290.408 62.4767C289.372 63.8823 288.374 65.177 287.413 66.3607C286.452 67.6183 285.639 68.6171 284.973 69.3569C282.311 72.3161 279.945 74.2396 277.875 75.1274C276.988 75.5713 276.175 75.7932 275.435 75.7932C274.4 75.7932 273.439 75.4603 272.552 74.7945C272.256 74.4985 271.923 74.0916 271.554 73.5738C271.184 72.9819 270.925 72.4641 270.777 72.0202C270.408 70.9105 270.297 69.0979 270.445 66.5826C270.666 64.1412 271.073 61.6999 271.664 59.2585C271.96 58.2968 272.182 57.446 272.33 56.7062C272.478 55.9664 272.552 55.5595 272.552 55.4855C272.478 55.4855 272.145 55.7074 271.554 56.1513C270.962 56.5952 270.297 57.1501 269.557 57.8159C267.043 60.0353 264.714 61.6999 262.57 62.8096C260.5 63.9933 258.762 64.5851 257.358 64.5851C256.988 64.5851 256.544 64.4372 256.027 64.1412C255.509 63.8453 254.992 63.4384 254.474 62.9206C253.661 62.1068 253.18 61.4779 253.032 61.034C252.958 60.8121 252.921 60.5162 252.921 60.1463C252.921 59.7764 252.958 59.2955 253.032 58.7037C253.18 57.0761 253.846 55.2636 255.029 53.2661C256.138 51.2686 257.542 49.4191 259.243 47.7175C261.683 45.2022 264.086 43.5376 266.452 42.7238C268.744 41.8361 270.999 41.7621 273.217 42.5019C274.252 42.8718 274.918 43.0198 275.213 42.9458C275.509 42.9458 275.99 42.6499 276.655 42.058C277.173 41.6141 277.653 41.3182 278.097 41.1702C278.541 40.9483 278.947 40.8373 279.317 40.8373C279.613 40.8373 279.909 40.8743 280.204 40.9483C280.426 41.0223 280.685 41.1333 280.981 41.2812ZM269.446 47.9395C268.337 48.2354 267.339 48.6423 266.452 49.1602C265.639 49.752 264.64 50.6398 263.457 51.8235C262.201 53.1551 261.239 54.2648 260.574 55.1526C259.982 56.0404 259.687 56.7432 259.687 57.261C259.687 57.7049 260.278 57.52 261.461 56.7062C262.644 55.8924 264.419 54.4498 266.785 52.3783C268.633 50.7507 269.816 49.567 270.334 48.8272C270.851 48.0874 270.777 47.7545 270.112 47.8285C270.038 47.8285 269.927 47.8285 269.779 47.8285C269.705 47.8285 269.594 47.8655 269.446 47.9395Z" fill="#1C1C1C"/>
<path d="M331.004 3.88399C331.373 3.95797 331.743 4.17991 332.113 4.54981C332.482 4.84573 332.741 5.17865 332.889 5.54855C332.963 5.69651 333 5.95544 333 6.32535C333 6.84321 332.852 7.50904 332.556 8.32283C332.187 9.65448 331.041 12.6507 329.118 17.3115C324.46 28.5565 320.726 38.9878 317.917 48.6053C315.033 58.2228 312.667 68.3951 310.819 79.1223C310.375 81.5637 309.895 83.2652 309.377 84.227C308.933 85.1887 308.231 85.6696 307.27 85.6696C306.974 85.6696 306.641 85.5956 306.272 85.4477C305.902 85.2257 305.569 84.9668 305.273 84.6709C305.052 84.4489 304.83 84.153 304.608 83.7831C304.46 83.4132 304.386 83.0803 304.386 82.7844C304.386 82.4884 304.46 81.8596 304.608 80.8979C304.756 79.9361 304.941 78.7894 305.163 77.4578C305.606 74.9424 306.198 71.9832 306.937 68.5801C307.602 65.2509 308.268 62.1807 308.933 59.3695C309.525 57.0021 310.005 54.9676 310.375 53.2661C310.745 51.6385 310.893 50.8247 310.819 50.8247C310.819 50.8247 310.375 51.3426 309.488 52.3783C308.601 53.414 307.566 54.6347 306.383 56.0404C302.168 61.145 298.286 64.8071 294.737 67.0265C291.262 69.2459 288.268 69.9487 285.754 69.1349C283.462 68.3951 282.131 66.7306 281.761 64.1412C281.613 63.6234 281.54 63.1055 281.54 62.5876C281.613 60.4422 282.316 58.1118 283.647 55.5965C285.199 52.4893 287.565 49.678 290.745 47.1627C293.924 44.6473 297.029 43.0937 300.061 42.5019C301.17 42.2799 302.057 42.169 302.723 42.169C303.388 42.243 304.312 42.5019 305.495 42.9458C306.087 43.0937 307.011 43.3897 308.268 43.8335C308.564 43.3897 309.007 42.7238 309.599 41.8361C312.039 38.359 314.516 34.1051 317.03 29.0744C319.617 23.9697 321.909 18.8651 323.906 13.7604C324.571 12.1328 325.274 10.5422 326.013 8.98865C326.678 7.43506 327.196 6.39933 327.566 5.88146C328.083 5.14166 328.564 4.5868 329.007 4.2169C329.303 3.92098 329.747 3.77301 330.338 3.77301C330.56 3.77301 330.782 3.81 331.004 3.88399ZM297.51 49.604C295.883 50.4178 294.22 51.7125 292.519 53.488C290.745 55.2636 289.451 56.9651 288.638 58.5927C287.455 61.034 287.159 62.5507 287.75 63.1425C288.342 63.7343 289.747 63.2905 291.965 61.8108C292.778 61.367 293.739 60.6272 294.848 59.5914C295.957 58.6297 297.066 57.5939 298.175 56.4842C299.876 54.7827 301.318 53.1551 302.501 51.6015C303.758 50.0479 304.275 49.1232 304.053 48.8272C303.98 48.6053 303.795 48.4573 303.499 48.3834C303.203 48.3094 302.834 48.3094 302.39 48.3834C301.724 48.3834 300.911 48.4943 299.95 48.7163C299.063 48.9382 298.249 49.2341 297.51 49.604Z" fill="#1C1C1C"/>
</svg>
