<svg width="20" height="20" viewBox="0 0 20 20" fill="none" xmlns="http://www.w3.org/2000/svg">
<path fill-rule="evenodd" clip-rule="evenodd" d="M4.94053 0C3.63022 0 2.37357 0.520518 1.44705 1.44705C0.520518 2.37357 0 3.63022 0 4.94053V14.8216C0 16.1319 0.520518 17.3885 1.44705 18.3151C2.37357 19.2416 3.63022 19.7621 4.94053 19.7621H14.8216C16.1319 19.7621 17.3885 19.2416 18.3151 18.3151C19.2416 17.3885 19.7621 16.1319 19.7621 14.8216V4.94053C19.7621 3.63022 19.2416 2.37357 18.3151 1.44705C17.3885 0.520518 16.1319 0 14.8216 0H4.94053ZM13.5667 8.5807C13.6554 8.48598 13.7247 8.3747 13.7704 8.25322C13.8162 8.13174 13.8375 8.00244 13.8333 7.8727C13.8291 7.74296 13.7994 7.61532 13.7458 7.49707C13.6923 7.37882 13.616 7.27228 13.5212 7.18352C13.4265 7.09477 13.3152 7.02554 13.1937 6.97979C13.0723 6.93404 12.943 6.91266 12.8132 6.91688C12.6835 6.9211 12.5558 6.95084 12.4376 7.00439C12.3193 7.05794 12.2128 7.13425 12.124 7.22898L9.07772 10.4798L7.57284 9.14294C7.37567 8.97903 7.12251 8.89818 6.86683 8.91747C6.61116 8.93676 6.373 9.05468 6.20265 9.24631C6.03231 9.43795 5.94313 9.68829 5.95395 9.94447C5.96477 10.2006 6.07474 10.4426 6.26063 10.6192L8.48387 12.5954C8.67624 12.7663 8.92768 12.8554 9.18472 12.8437C9.44177 12.8321 9.68414 12.7207 9.8603 12.5331L13.5667 8.5807Z" fill="#2ECC71"/>
</svg>
