<svg width="318" height="84" viewBox="0 0 318 84" fill="none" xmlns="http://www.w3.org/2000/svg">
<path d="M0 42.4222C0 36.6853 1.29339 31.5391 3.88018 26.9834C6.46696 22.3714 9.98162 18.7719 14.4241 16.1847C18.9229 13.5975 23.8997 12.3039 29.3544 12.3039C35.7651 12.3039 41.3605 13.8506 46.1404 16.944C50.9203 20.0373 54.4069 24.4243 56.6 30.1049H47.4057C45.7749 26.5616 43.413 23.8338 40.3201 21.9215C37.2835 20.0092 33.6282 19.0531 29.3544 19.0531C25.2493 19.0531 21.5659 20.0092 18.3043 21.9215C15.0427 23.8338 12.4841 26.5616 10.6283 30.1049C8.77258 33.592 7.84471 37.6977 7.84471 42.4222C7.84471 47.0903 8.77258 51.1961 10.6283 54.7394C12.4841 58.2265 15.0427 60.9262 18.3043 62.8385C21.5659 64.7507 25.2493 65.7069 29.3544 65.7069C33.6282 65.7069 37.2835 64.7788 40.3201 62.9228C43.413 61.0105 45.7749 58.2827 47.4057 54.7394H56.6C54.4069 60.3638 50.9203 64.7226 46.1404 67.816C41.3605 70.8531 35.7651 72.3717 29.3544 72.3717C23.8997 72.3717 18.9229 71.1062 14.4241 68.5753C9.98162 65.9881 6.46696 62.4166 3.88018 57.8609C1.29339 53.3052 0 48.159 0 42.4222Z" fill="white"/>
<path d="M100.839 13.0632V19.3062H84.8123V71.8655H77.1363V19.3062H61.0252V13.0632H100.839Z" fill="white"/>
<path d="M151.452 30.1049C149.821 26.674 147.459 24.0306 144.366 22.1746C141.273 20.2623 137.674 19.3062 133.569 19.3062C129.464 19.3062 125.752 20.2623 122.435 22.1746C119.173 24.0306 116.586 26.7303 114.674 30.2736C112.818 33.7607 111.891 37.8102 111.891 42.4222C111.891 47.0341 112.818 51.0836 114.674 54.5707C116.586 58.0578 119.173 60.7575 122.435 62.6697C125.752 64.5257 129.464 65.4538 133.569 65.4538C139.305 65.4538 144.029 63.7383 147.74 60.3075C151.452 56.8767 153.617 52.2366 154.235 46.3873H130.785V40.1443H162.417V46.0498C161.967 50.8868 160.449 55.33 157.862 59.3795C155.275 63.3728 151.873 66.5505 147.656 68.9127C143.438 71.2187 138.743 72.3717 133.569 72.3717C128.114 72.3717 123.137 71.1062 118.639 68.5753C114.14 65.9881 110.569 62.4166 107.926 57.8609C105.339 53.3052 104.046 48.159 104.046 42.4222C104.046 36.6853 105.339 31.5391 107.926 26.9834C110.569 22.3714 114.14 18.8 118.639 16.269C123.137 13.6819 128.114 12.3883 133.569 12.3883C139.811 12.3883 145.322 13.935 150.102 17.0283C154.938 20.1217 158.453 24.4806 160.646 30.1049H151.452Z" fill="white"/>
<path d="M182.846 83.1526C178.468 80.9634 175.926 76.797 175.22 70.6532C175.079 69.3821 175.008 68.0404 175.008 66.628C175.008 61.0492 176.138 54.058 178.397 45.6545C179.81 40.57 181.539 35.309 183.587 29.8714C185.635 24.4338 188.424 17.5839 191.954 9.32156C193.86 5.01387 195.237 2.29508 196.084 1.1652C196.72 0.388398 197.391 0 198.097 0C198.379 0 198.662 0.0706179 198.944 0.211854C200.074 0.706179 200.497 1.65952 200.215 3.07188C199.933 4.41362 198.626 7.83859 196.296 13.3468C192.625 21.9622 189.8 28.9533 187.823 34.3203C185.846 39.7579 184.258 44.8424 183.058 49.5738C181.857 54.517 181.081 59.1778 180.727 63.5561C180.445 67.8638 180.657 71.1122 181.363 73.3014C182.21 75.8436 183.658 77.4325 185.705 78.0681C187.753 78.7743 190.436 78.5624 193.754 77.4325C195.731 76.7264 197.708 75.6671 199.685 74.2547C201.662 72.7718 203.569 71.1122 205.405 69.2762C208.794 65.9571 211.83 62.5675 214.513 59.1072C217.196 55.7175 219.067 53.6343 220.126 52.8575C221.256 52.2219 222.456 52.3632 223.727 53.2812C224.221 53.7049 224.468 54.2699 224.468 54.976C224.468 55.8941 223.974 57.1652 222.986 58.7894C222.35 59.6368 221.468 60.802 220.338 62.285C219.208 63.768 217.867 65.3922 216.313 67.1576C213.489 70.4061 210.065 73.6898 206.04 77.0088C202.015 80.2572 197.708 82.4464 193.119 83.5763C191.707 83.8588 190.189 84 188.565 84C188.212 84 187.859 84 187.506 84C185.458 83.9294 183.905 83.6469 182.846 83.1526Z" fill="white"/>
<path d="M230.404 39.9344C231.533 40.3581 232.381 40.9937 232.946 41.8411C233.51 42.6885 233.793 43.8184 233.793 45.2308C233.793 47.8436 232.804 50.3153 230.827 52.6457C228.921 55.0467 226.167 57.1299 222.566 58.8953C221.648 59.3897 220.236 60.0958 218.33 61.0139C218.047 61.9319 218.012 62.744 218.224 63.4502C218.436 64.227 218.754 64.8625 219.177 65.3569C219.46 65.7806 219.919 66.0277 220.554 66.0984C221.119 66.2396 221.931 66.2749 222.99 66.2043C225.532 65.9924 228.603 64.7566 232.204 62.4968C235.805 60.2371 239.83 56.9887 244.278 52.7516C245.549 51.4805 246.714 50.3859 247.773 49.4678C248.832 48.5498 249.468 48.0555 249.679 47.9849C250.385 47.773 251.092 47.9496 251.798 48.5145C252.433 49.1501 252.751 49.8916 252.751 50.739C252.751 51.3745 252.468 52.0454 251.903 52.7516C251.339 53.4578 250.032 54.7995 247.985 56.7768C242.477 62.285 237.182 66.3808 232.098 69.0643C228.144 71.1829 224.755 72.2421 221.931 72.2421C221.154 72.2421 220.378 72.1362 219.601 71.9243C216.918 71.2182 214.976 69.6646 213.776 67.2636C212.999 65.71 212.611 63.9445 212.611 61.9672C212.611 60.8373 212.717 59.6368 212.928 58.3657C213.917 53.5637 216.035 49.2913 219.283 45.5485C222.531 41.7352 225.638 39.7932 228.603 39.7226C228.674 39.7226 228.709 39.7226 228.709 39.7226C228.992 39.7226 229.274 39.7226 229.556 39.7226C229.839 39.7932 230.121 39.8638 230.404 39.9344ZM221.931 51.1627C221.225 52.3632 220.872 53.0694 220.872 53.2812C220.942 53.4931 221.437 53.3518 222.355 52.8575C223.908 52.0807 225.426 50.6684 226.909 48.6204C228.462 46.5725 228.744 45.5485 227.756 45.5485C227.403 45.5485 226.485 46.2547 225.002 47.6671C223.59 49.0794 222.566 50.2446 221.931 51.1627Z" fill="white"/>
<path d="M268.324 39.4048C269.383 39.9697 269.842 40.7818 269.701 41.8411C269.63 42.8298 268.959 45.3014 267.688 49.256C266.488 52.7869 265.5 55.9647 264.723 58.7894C264.017 61.6847 263.664 63.6974 263.664 64.8272C263.664 66.3808 264.793 65.9571 267.053 63.5561C269.312 61.1551 272.56 56.918 276.797 50.8449C277.856 49.3619 278.562 48.4792 278.915 48.1967C279.268 47.9143 279.868 47.8083 280.715 47.8789C281.563 47.9496 282.269 48.3026 282.834 48.9382C283.187 49.3619 283.363 49.8209 283.363 50.3153C283.363 50.5271 283.328 50.739 283.257 50.9508C283.187 51.3039 282.551 52.3632 281.351 54.1286C280.15 55.8941 278.809 57.7301 277.326 59.6368C276.338 60.9786 275.384 62.2144 274.467 63.3443C273.549 64.5448 272.772 65.4981 272.137 66.2043C269.595 69.029 267.335 70.8651 265.358 71.7125C264.511 72.1362 263.734 72.348 263.028 72.348C262.04 72.348 261.122 72.0303 260.275 71.3947C259.992 71.1122 259.674 70.7238 259.321 70.2295C258.968 69.6646 258.721 69.1702 258.58 68.7465C258.227 67.6873 258.121 65.9571 258.262 63.5561C258.474 61.2257 258.863 58.8953 259.427 56.5649C259.71 55.6469 259.922 54.8348 260.063 54.1286C260.204 53.4224 260.275 53.034 260.275 52.9634C260.204 52.9634 259.886 53.1753 259.321 53.599C258.757 54.0227 258.121 54.5523 257.415 55.1879C255.014 57.3064 252.79 58.8953 250.743 59.9546C248.766 61.0845 247.106 61.6494 245.765 61.6494C245.412 61.6494 244.988 61.5082 244.494 61.2257C244 60.9433 243.506 60.5549 243.011 60.0605C242.235 59.2837 241.776 58.6835 241.634 58.2598C241.564 58.0479 241.529 57.7654 241.529 57.4124C241.529 57.0593 241.564 56.6003 241.634 56.0353C241.776 54.4817 242.411 52.7516 243.541 50.8449C244.6 48.9382 245.941 47.1728 247.565 45.5485C249.895 43.1475 252.19 41.5586 254.45 40.7818C256.638 39.9344 258.792 39.8638 260.91 40.57C261.899 40.9231 262.534 41.0643 262.816 40.9937C263.099 40.9937 263.558 40.7112 264.193 40.1463C264.688 39.7226 265.147 39.4401 265.57 39.2989C265.994 39.087 266.382 38.9811 266.735 38.9811C267.018 38.9811 267.3 39.0164 267.582 39.087C267.794 39.1576 268.041 39.2636 268.324 39.4048ZM257.309 45.7604C256.25 46.0429 255.297 46.4313 254.45 46.9256C253.673 47.4905 252.72 48.338 251.59 49.4678C250.39 50.739 249.472 51.7982 248.836 52.6457C248.271 53.4931 247.989 54.1639 247.989 54.6583C247.989 55.082 248.554 54.9054 249.684 54.1286C250.813 53.3518 252.508 51.9748 254.767 49.9975C256.532 48.4439 257.662 47.314 258.156 46.6078C258.651 45.9016 258.58 45.5839 257.945 45.6545C257.874 45.6545 257.768 45.6545 257.627 45.6545C257.556 45.6545 257.45 45.6898 257.309 45.7604Z" fill="white"/>
<path d="M316.094 3.70744C316.447 3.77806 316.8 3.98991 317.153 4.343C317.506 4.62547 317.753 4.94325 317.894 5.29634C317.965 5.43758 318 5.68474 318 6.03783C318 6.53216 317.859 7.16772 317.576 7.94451C317.223 9.21564 316.129 12.0757 314.293 16.5246C309.845 27.2585 306.279 37.2156 303.596 46.396C300.843 55.5763 298.583 65.2863 296.818 75.5259C296.394 77.8562 295.935 79.4805 295.441 80.3985C295.017 81.3165 294.347 81.7755 293.429 81.7755C293.146 81.7755 292.829 81.7049 292.476 81.5637C292.123 81.3518 291.805 81.1047 291.522 80.8222C291.311 80.6103 291.099 80.3279 290.887 79.9748C290.746 79.6217 290.675 79.3039 290.675 79.0214C290.675 78.739 290.746 78.1387 290.887 77.2207C291.028 76.3027 291.205 75.2081 291.417 73.937C291.84 71.5359 292.405 68.7112 293.111 65.4628C293.747 62.285 294.382 59.3544 295.017 56.6709C295.582 54.4111 296.041 52.4691 296.394 50.8449C296.747 49.2913 296.889 48.5145 296.818 48.5145C296.818 48.5145 296.394 49.0088 295.547 49.9975C294.7 50.9861 293.711 52.1513 292.582 53.4931C288.557 58.3657 284.85 61.8613 281.461 63.9798C278.142 66.0984 275.283 66.7692 272.882 65.9924C270.693 65.2863 269.422 63.6974 269.069 61.2257C268.928 60.7314 268.858 60.2371 268.858 59.7428C268.928 57.6948 269.599 55.4704 270.87 53.0694C272.353 50.1034 274.612 47.4199 277.648 45.0189C280.684 42.6179 283.65 41.1349 286.545 40.57C287.604 40.3581 288.451 40.2522 289.086 40.2522C289.722 40.3228 290.605 40.57 291.734 40.9937C292.299 41.1349 293.182 41.4174 294.382 41.8411C294.664 41.4174 295.088 40.7818 295.653 39.9344C297.983 36.6154 300.348 32.5549 302.749 27.7528C305.22 22.8802 307.409 18.0076 309.315 13.1349C309.951 11.5813 310.622 10.0631 311.328 8.58008C311.963 7.0971 312.457 6.10845 312.81 5.61412C313.305 4.90794 313.764 4.37831 314.187 4.02522C314.47 3.74275 314.893 3.60151 315.458 3.60151C315.67 3.60151 315.882 3.63682 316.094 3.70744ZM284.109 47.3493C282.555 48.1261 280.967 49.3619 279.343 51.0567C277.648 52.7516 276.413 54.3758 275.636 55.9294C274.506 58.2598 274.224 59.7074 274.789 60.2724C275.353 60.8373 276.695 60.4136 278.813 59.0013C279.59 58.5776 280.508 57.8714 281.567 56.8827C282.626 55.9647 283.685 54.976 284.744 53.9168C286.368 52.2926 287.745 50.739 288.875 49.256C290.075 47.773 290.569 46.8903 290.357 46.6078C290.287 46.396 290.11 46.2547 289.828 46.1841C289.545 46.1135 289.192 46.1135 288.769 46.1841C288.133 46.1841 287.357 46.29 286.439 46.5019C285.591 46.7137 284.815 46.9962 284.109 47.3493Z" fill="white"/>
</svg>
