<svg width="27" height="27" viewBox="0 0 27 27" fill="none" xmlns="http://www.w3.org/2000/svg">
<g clip-path="url(#clip0_43_5188)">
<path d="M12.3025 26.8801C9.98762 26.8801 8.10254 24.9962 8.10254 22.6801C8.10254 22.2164 8.47886 21.8401 8.94254 21.8401C9.40622 21.8401 9.78254 22.2164 9.78254 22.6801C9.78254 24.0701 10.9137 25.2001 12.3025 25.2001C13.6913 25.2001 14.8225 24.0701 14.8225 22.6801C14.8225 22.2164 15.1989 21.8401 15.6625 21.8401C16.1262 21.8401 16.5025 22.2164 16.5025 22.6801C16.5025 24.9962 14.6177 26.8801 12.3025 26.8801Z" fill="#0057FF"/>
<path d="M21.5425 23.5204H3.06247C1.98171 23.5204 1.10254 22.6412 1.10254 21.5604C1.10254 20.9868 1.35232 20.4438 1.78791 20.0707C1.81601 20.0461 1.84615 20.0238 1.87753 20.0035C3.52164 18.5687 4.46254 16.5046 4.46254 14.3251V11.2003C4.46254 6.87724 7.98045 3.36035 12.3025 3.36035C12.4817 3.36035 12.6755 3.36363 12.8547 3.39398C13.3127 3.47007 13.6219 3.9036 13.5457 4.36052C13.4696 4.81743 13.0282 5.12669 12.5791 5.0504C12.4895 5.03584 12.3911 5.04035 12.3025 5.04035C8.90679 5.04035 6.14254 7.80337 6.14254 11.2003V14.3251C6.14254 17.0311 4.95637 19.5915 2.89123 21.3486C2.87441 21.3621 2.85985 21.3744 2.84181 21.3867C2.81166 21.4249 2.78254 21.4831 2.78254 21.5604C2.78254 21.7126 2.9103 21.8404 3.06247 21.8404H21.5425C21.6948 21.8404 21.8226 21.7126 21.8226 21.5604C21.8226 21.4819 21.7935 21.4249 21.7621 21.3867C21.7453 21.3744 21.7307 21.3621 21.7139 21.3486C19.6475 19.5902 18.4626 17.0311 18.4626 14.3251V13.1044C18.4626 12.6408 18.8389 12.2644 19.3026 12.2644C19.7663 12.2644 20.1426 12.6408 20.1426 13.1044V14.3251C20.1426 16.5059 21.0845 18.571 22.7309 20.007C22.761 20.0271 22.7902 20.0484 22.817 20.072C23.2528 20.4438 23.5026 20.9868 23.5026 21.5604C23.5026 22.6412 22.6234 23.5204 21.5425 23.5204Z" fill="#0057FF"/>
<path d="M20.143 11.1999C17.0552 11.1999 14.543 8.68793 14.543 5.60007C14.543 2.51221 17.0552 0 20.143 0C23.2309 0 25.7429 2.51221 25.7429 5.60007C25.7429 8.68793 23.2309 11.1999 20.143 11.1999ZM20.143 1.68C17.9813 1.68 16.223 3.43834 16.223 5.60007C16.223 7.76159 17.9813 9.51993 20.143 9.51993C22.3046 9.51993 24.0629 7.76159 24.0629 5.60007C24.0629 3.43834 22.3046 1.68 20.143 1.68Z" fill="#0057FF"/>
</g>
<defs>
<clipPath id="clip0_43_5188">
<rect width="26.88" height="26.88" fill="white"/>
</clipPath>
</defs>
</svg>
