<svg width="21" height="21" viewBox="0 0 21 21" fill="none" xmlns="http://www.w3.org/2000/svg">
<path d="M19.5854 0.987979C19.2725 0.674774 18.901 0.426306 18.4921 0.256782C18.0831 0.0872568 17.6448 0 17.2021 0C16.7594 0 16.3211 0.0872568 15.9121 0.256782C15.5032 0.426306 15.1317 0.674774 14.8188 0.987979L2.14509 13.6625C1.76795 14.0397 1.49366 14.5077 1.34966 15.022L0.0236608 19.7577C-0.00697596 19.8675 -0.00787652 19.9834 0.0210517 20.0937C0.04998 20.2039 0.107697 20.3045 0.188289 20.3851C0.26888 20.4657 0.369449 20.5234 0.47969 20.5523C0.589931 20.5812 0.705882 20.5803 0.815661 20.5497L5.55052 19.2237C6.06515 19.0807 6.53386 18.8067 6.9108 18.4283L19.5854 5.75369C19.8984 5.44086 20.1468 5.06939 20.3163 4.66053C20.4857 4.25167 20.5729 3.81342 20.5729 3.37084C20.5729 2.92825 20.4857 2.49 20.3163 2.08114C20.1468 1.67228 19.8984 1.30081 19.5854 0.987979ZM15.7282 1.89655C16.1192 1.50566 16.6495 1.2861 17.2024 1.28618C17.7553 1.28626 18.2855 1.50597 18.6764 1.89698C19.0673 2.28798 19.2868 2.81825 19.2867 3.37114C19.2867 3.92402 19.0669 4.45423 18.6759 4.84512L17.3559 6.16426L14.4082 3.21569L15.7282 1.89655ZM13.4997 4.12512L16.4482 7.07369L6.00137 17.5197C5.78073 17.7418 5.50597 17.9025 5.20423 17.986L1.56909 19.0034L2.58652 15.3691C2.67106 15.0678 2.83163 14.7933 3.0528 14.572L13.4997 4.12512Z" fill="#0057FF"/>
</svg>
