<svg width="395" height="48" viewBox="0 0 395 48" fill="none" xmlns="http://www.w3.org/2000/svg">
<path fill-rule="evenodd" clip-rule="evenodd" d="M201.033 5.44769C199.592 3.24319 196.976 2.46529 194.884 2.46529H174.09L152.507 47.8636H163.362L171.604 30.0917H177.36C177.36 30.0917 179.059 30.2231 179.846 31.3888C180.5 32.5591 180.367 34.3756 179.322 36.5781C177.596 40.3176 176.025 44.1256 174.614 47.9925H185.602C185.602 47.9925 185.993 45.7906 186.91 43.5815C187.694 41.6357 190.31 35.2786 190.31 35.2786C192.403 30.0893 189.786 28.0164 188.087 26.9754C192.272 26.5876 195.284 24.6417 196.983 21.1399C198.291 18.416 200.512 13.8755 200.512 13.7463C202.6 9.46882 201.946 6.87425 201.033 5.44769ZM190.045 13.2314L188.083 17.1232L187.035 19.5885C186.121 21.4051 184.683 22.4416 182.851 22.4416H175.265L181.021 9.99041H189.261C189.261 9.99041 190.047 10.1197 190.308 10.6391C190.699 11.1562 190.567 12.0634 190.045 13.2314ZM85.4098 5.44769C83.9692 3.24319 81.3553 2.46529 79.263 2.46529H58.4669L36.8861 47.8636H47.7417L55.9832 30.0917H61.7391C61.7391 30.0917 63.4382 30.2231 64.2225 31.3888C64.8767 32.5591 64.7462 34.3756 63.6988 36.5781C61.9731 40.3176 60.4021 44.1256 58.9906 47.9925H69.9784C69.9784 47.9925 70.3719 45.7906 71.2864 43.5815C72.071 41.6357 74.687 35.2786 74.687 35.2786C76.7817 30.0893 74.1657 28.0164 72.4642 26.9754C76.6492 26.5876 79.6586 24.6417 81.3598 21.1399C82.6678 18.416 84.8906 13.8755 84.8906 13.7463C86.9787 9.46882 86.3246 6.87425 85.4098 5.44769ZM74.4219 13.2314L72.4598 17.1232L71.4145 19.5885C70.5 21.4051 69.0616 22.4416 67.2299 22.4416H59.6444L65.5308 9.99041H73.6397C73.6397 9.99041 74.424 10.1197 74.6849 10.6391C75.0757 11.1562 74.9456 12.0634 74.4219 13.2314ZM111.306 39.0432C113.528 34.6321 116.538 28.2772 119.678 21.5322L123.339 13.7507C127.133 5.70847 122.817 2.20448 117.455 2.20448H104.244C98.7512 2.20448 94.8269 4.79905 92.3411 10.1175C91.0331 12.9728 88.6799 17.6404 86.1944 23.0903L80.571 34.5028C75.0781 46.0489 83.3175 47.9949 87.3719 47.9949H95.7438C103.983 48.1242 108.168 45.7903 111.306 39.0432ZM96.6565 39.5648H91.8175C91.031 39.5648 89.334 39.3041 90.6399 36.5781C92.4716 32.5591 100.187 16.0845 101.758 12.7098C102.803 10.376 103.981 9.98595 105.42 9.98595H111.306C112.481 9.85444 113.528 10.5031 112.614 12.449L101.626 35.7954C100.059 39.0432 99.0118 39.5648 96.6565 39.5648ZM155.123 2.20448H144.007C138.251 2.20448 133.543 5.05986 131.189 10.1175C129.227 14.3994 119.547 34.5028 119.547 34.5028C116.017 41.8985 117.979 47.9949 127.657 47.9949H136.289C143.22 47.9949 146.621 46.9585 149.761 40.2113L157.739 22.7024H141.391L137.86 30.2252H143.483L140.344 37.0995C139.429 39.1769 138.775 39.5669 136.55 39.5669H130.927C129.227 39.5669 128.573 38.6577 129.618 36.5802C130.927 33.8587 141.13 12.712 141.13 12.712C142.306 10.3782 142.96 9.98817 144.661 9.98817H150.545C151.986 9.98817 152.77 10.6368 151.853 12.4512C151.592 12.9706 149.237 18.0282 149.237 18.0282H159.569L161.924 13.0998C165.325 5.70626 162.315 2.33599 155.123 2.20448ZM286.701 47.8636L308.411 2.33599H297.161L275.583 47.8636H286.701ZM336.01 2.33599L310.766 42.4181L323.583 2.33599H311.942L301.217 47.8636H316.26L347.78 2.33599H336.01ZM249.815 32.0374L248.903 15.1773C248.77 13.2314 249.294 10.3782 252.955 10.3782H260.545L264.339 2.33599H251.521C241.448 2.33599 237.917 8.43231 238.308 15.6966C238.571 20.1079 239.225 34.5028 239.225 34.5028C239.358 38.0067 238.05 39.5648 234.777 39.5648H226.142L222.348 47.8636H235.953C245.109 47.8636 250.337 42.0302 249.815 32.0374ZM275.451 32.0374L274.538 15.1773C274.405 13.2314 274.929 10.3782 278.59 10.3782H286.18L289.974 2.33599H277.156C268.784 2.33599 263.422 6.87649 263.943 15.6966C264.206 20.1079 264.86 34.5028 264.86 34.5028C264.993 38.0067 263.685 39.5648 260.412 39.5648H252.04L248.116 47.8636H261.588C271.531 47.8636 275.979 40.7327 275.451 32.0374ZM212.671 2.33599L191.223 47.8636H218.296L222.218 39.5648H205.739L211.626 27.5014H225.488L229.154 19.8471H215.154L219.607 10.3782H233.991L237.782 2.33599H212.671ZM351.445 2.33599L329.993 47.8636H357.068L360.994 39.5648H344.509L350.395 27.5014H364.262L367.925 19.8448H353.929L358.376 10.376H372.76C372.895 10.376 376.555 2.33376 376.555 2.33376L351.445 2.33599ZM22.3672 24.129L28.9075 9.85887H35.9692C37.4098 9.85887 38.5852 10.6368 37.1468 13.6214C35.9716 16.1943 34.7501 18.7461 33.4834 21.2758C32.5686 23.2218 31.2607 24.1312 29.2986 24.1312L22.3672 24.129ZM18.7038 32.0374H29.4289C36.3603 32.0374 40.0213 29.9645 42.9006 24.1267C43.8151 22.3101 45.5166 18.4183 47.6092 14.0071C51.2701 6.09409 46.8246 2.46306 42.116 2.46306H21.4502L0 47.9925H11.2488L18.7038 32.0374ZM383.617 5.57696C383.617 2.46528 386.104 0 389.246 0C392.385 0 395 2.46528 395 5.57696C395 8.69088 392.385 11.2855 389.246 11.2855C386.104 11.2855 383.617 8.69088 383.617 5.57696ZM394.345 5.57696C394.345 2.85312 391.99 0.648641 389.246 0.648641C388.59 0.647761 387.944 0.774599 387.339 1.0219C386.738 1.26921 386.187 1.63212 385.726 2.08988C385.266 2.54763 384.898 3.09124 384.649 3.6896C384.398 4.28796 384.269 4.9293 384.269 5.57696C384.269 8.4301 386.496 10.6368 389.246 10.6368C391.99 10.6368 394.345 8.43231 394.345 5.57696ZM392.118 8.82018H391.203L389.371 5.83777H387.935V8.82018H387.151V2.46529H389.898C390.419 2.46529 391.074 2.46528 391.466 2.72384C391.987 2.98464 392.25 3.63105 392.25 4.1504C392.25 5.31618 391.334 5.83552 390.155 5.83552L392.118 8.82018ZM389.111 5.18912C390.024 5.18912 391.466 5.44769 391.466 4.1504C391.466 3.11168 390.553 2.98463 389.766 2.98463H387.935V5.18912H389.111Z" fill="#2D95E5"/>
</svg>
