<svg width="23" height="23" viewBox="0 0 23 23" fill="none" xmlns="http://www.w3.org/2000/svg">
<path d="M22.6875 21.3375L17.1656 15.8156C18.5344 14.1469 19.3594 12.0094 19.3594 9.67969C19.3594 4.33594 15.0234 0 9.67969 0C4.33125 0 0 4.33594 0 9.67969C0 15.0234 4.33125 19.3594 9.67969 19.3594C12.0094 19.3594 14.1422 18.5391 15.8109 17.1703L21.3328 22.6875C21.7078 23.0625 22.3125 23.0625 22.6875 22.6875C23.0625 22.3172 23.0625 21.7078 22.6875 21.3375ZM9.67969 17.4328C5.4 17.4328 1.92188 13.9547 1.92188 9.67969C1.92188 5.40469 5.4 1.92188 9.67969 1.92188C13.9547 1.92188 17.4375 5.40469 17.4375 9.67969C17.4375 13.9547 13.9547 17.4328 9.67969 17.4328Z" fill="#4B4B4B"/>
</svg>
