<svg width="20" height="20" viewBox="0 0 20 20" fill="none" xmlns="http://www.w3.org/2000/svg">
<path d="M5.82985 14.1715C3.67926 12.0167 2.02537 9.41816 0.983853 6.55751C0.410853 4.99351 0.935853 3.27551 2.11385 2.09751L2.84285 1.36951C3.03884 1.17313 3.27163 1.01733 3.52791 0.911022C3.78418 0.804718 4.05891 0.75 4.33635 0.75C4.6138 0.75 4.88852 0.804718 5.1448 0.911022C5.40107 1.01733 5.63387 1.17313 5.82985 1.36951L7.53685 3.07651C7.73324 3.2725 7.88904 3.50529 7.99534 3.76157C8.10165 4.01784 8.15636 4.29256 8.15636 4.57001C8.15636 4.84746 8.10165 5.12218 7.99534 5.37846C7.88904 5.63473 7.73324 5.86752 7.53685 6.06351L7.11685 6.48351C6.94874 6.65159 6.81538 6.85114 6.72439 7.07076C6.63341 7.29039 6.58658 7.52579 6.58658 7.76351C6.58658 8.00124 6.63341 8.23663 6.72439 8.45626C6.81538 8.67588 6.94874 8.87543 7.11685 9.04351L10.9569 12.8845C11.1249 13.0526 11.3245 13.186 11.5441 13.277C11.7637 13.368 11.9991 13.4148 12.2369 13.4148C12.4746 13.4148 12.71 13.368 12.9296 13.277C13.1492 13.186 13.3488 13.0526 13.5169 12.8845L13.9379 12.4645C14.1338 12.2681 14.3666 12.1123 14.6229 12.006C14.8792 11.8997 15.1539 11.845 15.4314 11.845C15.7088 11.845 15.9835 11.8997 16.2398 12.006C16.4961 12.1123 16.7289 12.2681 16.9249 12.4645L18.6319 14.1715C18.8282 14.3675 18.984 14.6003 19.0903 14.8566C19.1966 15.1128 19.2514 15.3876 19.2514 15.665C19.2514 15.9425 19.1966 16.2172 19.0903 16.4735C18.984 16.7297 18.8282 16.9625 18.6319 17.1585L17.9039 17.8865C16.7259 19.0655 15.0079 19.5905 13.4439 19.0175C10.5832 17.976 7.98462 16.3221 5.82985 14.1715Z" stroke="#4B4B4B" stroke-width="1.5" stroke-linejoin="round"/>
</svg>
