<svg width="32" height="12" viewBox="0 0 32 12" fill="none" xmlns="http://www.w3.org/2000/svg">
<path d="M0 6.01685C0 4.87079 0.254829 3.8427 0.764486 2.93258C1.27414 2.01124 1.96661 1.29213 2.84189 0.775281C3.72825 0.258427 4.70879 0 5.7835 0C7.04657 0 8.14898 0.308989 9.09074 0.926966C10.0325 1.54494 10.7194 2.42135 11.1515 3.55618H9.34003C9.01872 2.84831 8.55338 2.30337 7.94401 1.92135C7.34571 1.53933 6.62555 1.34831 5.7835 1.34831C4.9747 1.34831 4.24899 1.53933 3.60638 1.92135C2.96377 2.30337 2.45965 2.84831 2.09403 3.55618C1.7284 4.25281 1.54559 5.07303 1.54559 6.01685C1.54559 6.94944 1.7284 7.76966 2.09403 8.47753C2.45965 9.17416 2.96377 9.71348 3.60638 10.0955C4.24899 10.4775 4.9747 10.6685 5.7835 10.6685C6.62555 10.6685 7.34571 10.4831 7.94401 10.1124C8.55338 9.73034 9.01872 9.18539 9.34003 8.47753H11.1515C10.7194 9.60112 10.0325 10.4719 9.09074 11.0899C8.14898 11.6966 7.04657 12 5.7835 12C4.70879 12 3.72825 11.7472 2.84189 11.2416C1.96661 10.7247 1.27414 10.0112 0.764486 9.10112C0.254829 8.19101 0 7.16292 0 6.01685Z" fill="#0057FF"/>
<path d="M19.8677 0.151685V1.39888H16.71V11.8989H15.1977V1.39888H12.0234V0.151685H19.8677Z" fill="#0057FF"/>
<path d="M29.8395 3.55618C29.5182 2.87079 29.0528 2.3427 28.4435 1.97191C27.8341 1.58989 27.125 1.39888 26.3162 1.39888C25.5074 1.39888 24.7762 1.58989 24.1225 1.97191C23.4799 2.3427 22.9702 2.88202 22.5935 3.58989C22.2279 4.28652 22.0451 5.09551 22.0451 6.01685C22.0451 6.9382 22.2279 7.74719 22.5935 8.44382C22.9702 9.14045 23.4799 9.67978 24.1225 10.0618C24.7762 10.4326 25.5074 10.618 26.3162 10.618C27.4463 10.618 28.377 10.2753 29.1082 9.58989C29.8395 8.90449 30.2661 7.97753 30.3879 6.80899H25.7678V5.5618H32V6.74157C31.9114 7.70786 31.6122 8.59551 31.1026 9.40449C30.5929 10.2022 29.9226 10.8371 29.0916 11.309C28.2607 11.7697 27.3355 12 26.3162 12C25.2415 12 24.261 11.7472 23.3746 11.2416C22.4882 10.7247 21.7847 10.0112 21.264 9.10112C20.7543 8.19101 20.4995 7.16292 20.4995 6.01685C20.4995 4.87079 20.7543 3.8427 21.264 2.93258C21.7847 2.01124 22.4882 1.29775 23.3746 0.792135C24.261 0.275281 25.2415 0.0168537 26.3162 0.0168537C27.546 0.0168537 28.6318 0.325843 29.5736 0.94382C30.5264 1.5618 31.2189 2.43258 31.651 3.55618H29.8395Z" fill="#0057FF"/>
</svg>
